# xmcd
#
# Track frame offsets:
#	150
#	16970
#	32018
#	59907
#	77514
#	92673
#	110557
#	132229
#	148075
#	166467
#	181285
#	199336
#	211959
#
# Disc length: 3072 seconds
# Revision: 0
# Processed by: cddbd v1.5.2PL0 Copyright (c) Steve Scherf et al.
# Submitted via: dBpowerAMP V12.0
#
DISCID=ba0bfe0d
DTITLE=Various Artist - The Rail
DYEAR=2019
DGENRE=Bluegrass
TTITLE0=Scott Slay - The Rail
TTITLE1=Scott Slay feat. Sierra Hull - Truth Came Out
TTITLE2=Scott Slay - Devil's Backbone
TTITLE3=Scott Slay - Green Valley
TTITLE4=Scott Slay feat. Mike Munford - Runaway Move
TTITLE5=Scott Slay - Moonshine Feel
TTITLE6=Scott Slay feat. Andy Hall - Railroad Blues
TTITLE7=Scott Slay - Drink It Up Men
TTITLE8=Scott Slay - Remember Her
TTITLE9=Scott Slay feat. Scott Vestal - Battle of Grapevine
TTITLE10=Scott Slay feat. Josh Shilling - Atlanta Blues (Make Me a Pallet)
TTITLE11=Scott Slay - Dog River
TTITLE12=Scott Slay feat. Brandon Rickman - Rye Whiskey
EXTD=
EXTT0=
EXTT1=
EXTT2=
EXTT3=
EXTT4=
EXTT5=
EXTT6=
EXTT7=
EXTT8=
EXTT9=
EXTT10=
EXTT11=
EXTT12=
PLAYORDER=
